<!--?xml version="1.0" encoding="UTF-8"?-->
<svg width="443px" height="443px" viewBox="0 0 443 443" version="1.1" xmlns="http://www.w3.org/2000/svg" xmlns:xlink="http://www.w3.org/1999/xlink">
    <!-- Generator: Sketch 42 (36781) - http://www.bohemiancoding.com/sketch -->
    <title>Rectangle</title>
    <desc>Created with Sketch.</desc>
    <defs></defs>
    <g id="Page-1" stroke="none" stroke-width="1" fill="none" fill-rule="evenodd">
        <g id="Lines" transform="translate(-5.000000, 38.000000)" stroke="#FFFFFF" stroke-width="10">
            <path d="M0.00718688965,64.6980743 C102.834303,56.7897188 139.534883,154.431254 202.762888,145.637 C265.990893,136.842746 359.425633,59.6475121 453.003524,0.0056393509 L453.003524,48.1368795 C332.475082,125.453683 272.836332,184.422213 215.36891,177.753135 C157.901489,171.084057 114.451182,107.274333 68.3633828,99.7496737 C22.2755839,92.2250143 0.00718688965,104.075775 0.00718688965,104.075775 C0.00718688965,93.429691 0.00718688965,80.8067721 0.00718688965,64.6980743 Z" id="Path-2" class="uuEIJbZI_0"></path>
            <path d="M0.000534057617,152.209778 C0.000534057617,169.136933 0.000534057617,182.60936 0.000534057617,198.667114 C5.31037705,195.375049 52.9165669,152.045431 103.836315,153.114428 C154.756063,154.183425 216.670941,219.340432 273.40174,230.463175 C330.132539,241.585919 425.793624,162.5124 452.992004,141.777186 L452.992004,94.4311218 C412.649404,115.960861 323.106783,200.155827 260.349994,200.155827 C197.593206,200.155827 135.714049,119.437367 80.3313361,120.983497 C24.9486237,122.529627 1.30583353,150.999678 0.000534057617,152.209778 Z" id="Path-3" class="uuEIJbZI_1"></path>
            <path d="M0.000518798828,295.755966 L0.000518798828,244.532684 C11.084423,238.092812 86.1763295,173.153862 144.598746,177.588532 C203.021163,182.023202 274.37653,259.994418 324.850438,256.409461 C375.324346,252.824505 425.534118,204.045096 453.000732,191.009781 C453.000732,207.094666 453.000732,226.178744 453.000732,238.092316 C421.991379,264.768079 388.281885,287.933764 338.508812,287.933764 C288.735738,287.933764 227.249014,202.635973 161.090516,207.135746 C94.9320173,211.635519 44.3120925,275.485719 0.000518798828,295.755966 Z" id="Path-4" class="uuEIJbZI_2"></path>
            <path d="M288.569468,268.264141 C343.162348,302.442673 344.67866,309.391374 382.800041,311.790144 C420.921422,314.188913 446.168527,286.621458 453.000488,285.006866 L453.000488,333.319244 C447.881141,336.387523 391.353077,363.124093 324.422757,316.52244 C283.429775,287.980209 263.015618,251.177334 241.420152,235.995529 C245.689358,239.121564 273.330344,258.219881 288.569468,268.264141 Z" id="Path-5" class="uuEIJbZI_3"></path>
        </g>
    </g>
<style>.uuEIJbZI_0{stroke-dasharray:1116 1118;stroke-dashoffset:1117;animation:uuEIJbZI_draw_0 3500ms linear 0ms infinite,uuEIJbZI_fade 3500ms linear 0ms infinite;}.uuEIJbZI_1{stroke-dasharray:1113 1115;stroke-dashoffset:1114;animation:uuEIJbZI_draw_1 3500ms linear 0ms infinite,uuEIJbZI_fade 3500ms linear 0ms infinite;}.uuEIJbZI_2{stroke-dasharray:1118 1120;stroke-dashoffset:1119;animation:uuEIJbZI_draw_2 3500ms linear 0ms infinite,uuEIJbZI_fade 3500ms linear 0ms infinite;}.uuEIJbZI_3{stroke-dasharray:540 542;stroke-dashoffset:541;animation:uuEIJbZI_draw_3 3500ms linear 0ms infinite,uuEIJbZI_fade 3500ms linear 0ms infinite;}@keyframes uuEIJbZI_draw{100%{stroke-dashoffset:0;}}@keyframes uuEIJbZI_fade{0%{stroke-opacity:1;}92.85714285714286%{stroke-opacity:1;}100%{stroke-opacity:0;}}@keyframes uuEIJbZI_draw_0{0%{stroke-dashoffset: 1117}57.14285714285714%{ stroke-dashoffset: 0;}100%{ stroke-dashoffset: 0;}}@keyframes uuEIJbZI_draw_1{9.523809523809524%{stroke-dashoffset: 1114}66.66666666666667%{ stroke-dashoffset: 0;}100%{ stroke-dashoffset: 0;}}@keyframes uuEIJbZI_draw_2{19.047619047619047%{stroke-dashoffset: 1119}76.19047619047619%{ stroke-dashoffset: 0;}100%{ stroke-dashoffset: 0;}}@keyframes uuEIJbZI_draw_3{28.57142857142857%{stroke-dashoffset: 541}85.71428571428571%{ stroke-dashoffset: 0;}100%{ stroke-dashoffset: 0;}}</style></svg>